# Blender 4.0.1
# www.blender.org
mtllib corp3.mtl
o corp2
v 0.237639 0.123956 0.257499
v 0.237639 -0.107888 -0.252888
v 0.237639 0.124746 -0.252528
v 0.237639 -0.108678 0.257139
v -0.230826 0.124746 -0.252528
v -0.230826 -0.108678 0.257139
v -0.230826 0.123956 0.257499
v -0.230826 -0.107888 -0.252888
v -0.259055 -0.033261 -0.169044
v -0.259055 -0.172704 -0.191482
v -0.259055 -0.172736 -0.170331
v -0.259055 -0.047826 -0.190236
v -0.259055 -0.047565 -0.319484
v -0.259055 -0.173272 -0.349942
v -0.259055 -0.174158 -0.320658
v -0.259055 -0.030438 -0.345711
v 0.260886 -0.172736 -0.170331
v 0.260886 -0.172704 -0.191482
v 0.260886 -0.033261 -0.169044
v 0.260886 -0.047826 -0.190236
v 0.260886 -0.174158 -0.320658
v 0.260886 -0.173272 -0.349942
v 0.260886 -0.047565 -0.319484
v 0.260886 -0.030438 -0.345711
v -0.259055 -0.036746 0.350063
v -0.259055 -0.176187 0.326983
v -0.259055 -0.176220 0.348745
v -0.259055 -0.051309 0.328259
v -0.259055 -0.051043 0.195279
v -0.259055 -0.176748 0.163946
v -0.259055 -0.177636 0.194076
v -0.259055 -0.033914 0.168293
v 0.260886 -0.176220 0.348745
v 0.260886 -0.176187 0.326983
v 0.260886 -0.036746 0.350063
v 0.260886 -0.051309 0.328259
v 0.260886 -0.177636 0.194076
v 0.260886 -0.176748 0.163945
v 0.260886 -0.051043 0.195279
v 0.260886 -0.033914 0.168293
vn 0.5774 0.5765 0.5782
vn 0.5774 -0.5765 -0.5782
vn 0.5774 0.5782 -0.5765
vn 0.5774 -0.5782 0.5765
vn -0.5774 0.5782 -0.5765
vn -0.5774 -0.5782 0.5765
vn -0.5774 0.5765 0.5782
vn -0.5774 -0.5765 -0.5782
vn -0.5777 0.5699 0.5844
vn -0.5769 -0.5743 -0.5809
vn -0.5778 -0.5802 0.5740
vn -0.9055 -0.2983 -0.3019
vn -0.9037 -0.3045 0.3011
vn -0.5774 -0.5598 -0.5944
vn -0.5763 -0.5892 0.5664
vn -0.5781 0.5900 -0.5637
vn 0.5778 -0.5802 0.5740
vn 0.5769 -0.5742 -0.5809
vn 0.5777 0.5699 0.5844
vn 0.9055 -0.2983 -0.3019
vn 0.5763 -0.5892 0.5664
vn 0.5774 -0.5598 -0.5944
vn 0.9037 -0.3045 0.3011
vn 0.5781 0.5900 -0.5637
vn -0.5769 -0.5742 -0.5810
vn -0.5778 -0.5803 0.5740
vn -0.9055 -0.2982 -0.3019
vn -0.9037 -0.3046 0.3011
vn -0.5773 -0.5598 -0.5944
vn -0.5763 -0.5890 0.5665
vn -0.5781 0.5901 -0.5635
vn 0.5778 -0.5803 0.5740
vn 0.5769 -0.5742 -0.5810
vn 0.9055 -0.2982 -0.3019
vn 0.5763 -0.5890 0.5665
vn 0.5773 -0.5598 -0.5944
vn 0.9037 -0.3046 0.3011
vn 0.5781 0.5901 -0.5635
s 1
f 1//1 2//2 3//3
f 1//1 4//4 2//2
f 5//5 6//6 7//7
f 5//5 8//8 6//6
f 7//7 4//4 1//1
f 7//7 6//6 4//4
f 3//3 8//8 5//5
f 3//3 2//2 8//8
f 3//3 7//7 1//1
f 3//3 5//5 7//7
f 8//8 4//4 6//6
f 8//8 2//2 4//4
f 9//9 10//10 11//11
f 9//9 12//12 10//10
f 13//13 14//14 15//15
f 13//13 16//16 14//14
f 16//16 12//12 9//9
f 16//16 13//13 12//12
f 17//17 18//18 19//19
f 18//18 20//20 19//19
f 21//21 22//22 23//23
f 22//22 24//24 23//23
f 19//19 20//20 24//24
f 20//20 23//23 24//24
f 9//9 17//17 19//19
f 9//9 11//11 17//17
f 11//11 18//18 17//17
f 11//11 10//10 18//18
f 10//10 20//20 18//18
f 10//10 12//12 20//20
f 12//12 23//23 20//20
f 12//12 13//13 23//23
f 13//13 21//21 23//23
f 13//13 15//15 21//21
f 15//15 22//22 21//21
f 15//15 14//14 22//22
f 14//14 24//24 22//22
f 14//14 16//16 24//24
f 16//16 19//19 24//24
f 16//16 9//9 19//19
f 25//9 26//25 27//26
f 25//9 28//27 26//25
f 29//28 30//29 31//30
f 29//28 32//31 30//29
f 32//31 28//27 25//9
f 32//31 29//28 28//27
f 33//32 34//33 35//19
f 34//33 36//34 35//19
f 37//35 38//36 39//37
f 38//36 40//38 39//37
f 35//19 36//34 40//38
f 36//34 39//37 40//38
f 25//9 33//32 35//19
f 25//9 27//26 33//32
f 27//26 34//33 33//32
f 27//26 26//25 34//33
f 26//25 36//34 34//33
f 26//25 28//27 36//34
f 28//27 39//37 36//34
f 28//27 29//28 39//37
f 29//28 37//35 39//37
f 29//28 31//30 37//35
f 31//30 38//36 37//35
f 31//30 30//29 38//36
f 30//29 40//38 38//36
f 30//29 32//31 40//38
f 32//31 35//19 40//38
f 32//31 25//9 35//19
