# File produced by Open Asset Import Library (http://www.assimp.sf.net)
# (assimp v5.0.3443702165)

mtllib result.mtl

# 40 vertex positions
v  -0.205079451 0.0149533376 0.865344465
v  -0.205079541 -0.217680633 0.355317473
v  -0.205079541 0.0149533376 0.355317473
v  -0.205079451 -0.217680633 0.865344465
v  -0.673544526 0.0149533376 0.355317533
v  -0.673544407 -0.217680633 0.865344524
v  -0.673544407 0.0149533376 0.865344524
v  -0.673544526 -0.217680633 0.355317533
v  -0.701773882 -0.142924339 0.439045936
v  -0.701773942 -0.282401443 0.416823953
v  -0.701773882 -0.28240037 0.437974185
v  -0.701773942 -0.157521874 0.417876244
v  -0.701773942 -0.157460928 0.288628429
v  -0.701774001 -0.283214658 0.258364201
v  -0.701773942 -0.284055948 0.287650317
v  -0.701774001 -0.140374437 0.262374908
v  -0.181833059 -0.28240037 0.437974095
v  -0.181833088 -0.282401443 0.416823864
v  -0.181833059 -0.142924339 0.439045846
v  -0.181833088 -0.157521874 0.417876154
v  -0.181833088 -0.284055948 0.287650228
v  -0.181833118 -0.283214658 0.258364111
v  -0.181833088 -0.157460928 0.28862834
v  -0.181833118 -0.140374437 0.262374818
v  -0.70177412 -0.145604879 0.958157599
v  -0.70177412 -0.285081983 0.935293734
v  -0.70177412 -0.28508091 0.957054913
v  -0.70177412 -0.160202414 0.936376452
v  -0.70177412 -0.160141468 0.803395331
v  -0.70177418 -0.285895199 0.772256911
v  -0.70177412 -0.286736488 0.802388906
v  -0.70177418 -0.143054977 0.77638346
v  -0.181833267 -0.28508091 0.957054794
v  -0.181833297 -0.285081983 0.935293615
v  -0.181833267 -0.145604879 0.95815748
v  -0.181833297 -0.160202414 0.936376333
v  -0.181833297 -0.286736488 0.802388847
v  -0.181833327 -0.285895199 0.772256792
v  -0.181833297 -0.160141468 0.803395212
v  -0.181833327 -0.143054977 0.77638334

# 0 UV coordinates

# 24 vertex normals
vn 0.00299468916 0 -5.35492206e-10
vn -0.00299468916 0 5.35492206e-10
vn 3.31165179e-10 0 0.00185200979
vn -3.31165179e-10 0 -0.00185200979
vn 0 0.00148712611 0
vn 0 -0.00148712611 0
vn -0.378194273 0 6.76264094e-08
vn 0.378194273 0 -6.76264094e-08
vn 3.23078098e-08 -0.000877952843 0.180678368
vn 2.11040712e-12 -0.143681526 1.18022517e-05
vn -3.2307689e-08 0.000962777878 -0.180677682
vn -1.91572765e-11 -0.143681496 -0.000107135253
vn 3.23078027e-08 -0.000882788678 0.180678323
vn -1.16637811e-09 -0.143587872 -0.00652285898
vn -3.23003668e-08 0.00320737273 -0.180636734
vn 5.86292959e-10 0.143657878 0.00327878748
vn 3.32410188e-08 -0.000877952843 0.185897231
vn 2.17136617e-12 -0.143681526 1.21431576e-05
vn -3.32408945e-08 0.000962777878 -0.185896531
vn -1.97106342e-11 -0.143681496 -0.000110229841
vn 3.32410117e-08 -0.000882788678 0.185897186
vn -1.20006893e-09 -0.143587872 -0.00671127113
vn -3.32333592e-08 0.00320737273 -0.18585439
vn 6.03227968e-10 0.143657878 0.00337349484

# Mesh 'mesh_id27' with 12 faces
g mesh_id27
usemtl 74
f  1//1 2//1 3//1
f  1//1 4//1 2//1
f  5//2 6//2 7//2
f  5//2 8//2 6//2
f  7//3 4//3 1//3
f  7//3 6//3 4//3
f  3//4 8//4 5//4
f  3//4 2//4 8//4
f  3//5 7//5 1//5
f  3//5 5//5 7//5
f  8//6 4//6 6//6
f  8//6 2//6 4//6

# Mesh 'mesh_id33' with 28 faces
g mesh_id33
usemtl 76
f  9//7 10//7 11//7
f  9//7 12//7 10//7
f  13//7 14//7 15//7
f  13//7 16//7 14//7
f  16//7 12//7 9//7
f  16//7 13//7 12//7
f  17//8 18//8 19//8
f  18//8 20//8 19//8
f  21//8 22//8 23//8
f  22//8 24//8 23//8
f  19//8 20//8 24//8
f  20//8 23//8 24//8
f  9//9 17//9 19//9
f  9//9 11//9 17//9
f  11//10 18//10 17//10
f  11//10 10//10 18//10
f  10//11 20//11 18//11
f  10//11 12//11 20//11
f  12//12 23//12 20//12
f  12//12 13//12 23//12
f  13//13 21//13 23//13
f  13//13 15//13 21//13
f  15//14 22//14 21//14
f  15//14 14//14 22//14
f  14//15 24//15 22//15
f  14//15 16//15 24//15
f  16//16 19//16 24//16
f  16//16 9//16 19//16

# Mesh 'mesh_id51' with 28 faces
g mesh_id51
usemtl 76
f  25//7 26//7 27//7
f  25//7 28//7 26//7
f  29//7 30//7 31//7
f  29//7 32//7 30//7
f  32//7 28//7 25//7
f  32//7 29//7 28//7
f  33//8 34//8 35//8
f  34//8 36//8 35//8
f  37//8 38//8 39//8
f  38//8 40//8 39//8
f  35//8 36//8 40//8
f  36//8 39//8 40//8
f  25//17 33//17 35//17
f  25//17 27//17 33//17
f  27//18 34//18 33//18
f  27//18 26//18 34//18
f  26//19 36//19 34//19
f  26//19 28//19 36//19
f  28//20 39//20 36//20
f  28//20 29//20 39//20
f  29//21 37//21 39//21
f  29//21 31//21 37//21
f  31//22 38//22 37//22
f  31//22 30//22 38//22
f  30//23 40//23 38//23
f  30//23 32//23 40//23
f  32//24 35//24 40//24
f  32//24 25//24 35//24

